<svg width="72" height="72" version="1.1" viewBox="0 0 72 72" xmlns="http://www.w3.org/2000/svg"><defs><clipPath id="clipPath110"><path d="m102.55 386.54h306.91v-340.95h-306.91z"/></clipPath><clipPath><path d="m246.28 386.54h126.93v-61.18h-126.93z"/></clipPath><clipPath><path d="m120.81 354.12h162v-199.71h-162z"/></clipPath><clipPath><path d="m102.55 183.93h306.91v-138.35h-306.91z"/></clipPath><clipPath id="clipPath314"><path d="m102.55 386.54h306.91v-340.95h-306.91z"/></clipPath><clipPath><path d="m246.28 386.54h126.93v-61.18h-126.93z"/></clipPath><clipPath><path d="m120.81 354.12h162v-199.71h-162z"/></clipPath><clipPath><path d="m102.55 183.93h306.91v-138.35h-306.91z"/></clipPath></defs><g transform="matrix(1.3333 0 0 -1.3333 0 72)"><g clip-path="url(#clipPath110)"/></g><path d="m35.211 0c5.6052 0 10.634 1.017 15.084 3.048 4.4505 2.0324 8.6729 5.0456 12.667 9.0378l-6.0469 9.1736c-0.35173 0.53393-0.89852 0.81358-1.4601 0.81358-0.40508 0-0.81803-0.14562-1.1707-0.44649-0.07602-0.06478-1.5194-1.2938-3.2009-2.3631-1.6818-1.0661-3.3294-1.9771-4.9403-2.7364-1.6125-0.75593-3.119-1.3254-4.5211-1.7033-1.4021-0.37815-2.6276-0.56945-3.6781-0.56945-1.2622 0-2.1921 0.30998-2.7864 0.92992-0.59586 0.62012-0.89298 1.411-0.89298 2.3758 0 1.2385 0.71792 2.3932 2.1552 3.4608 1.4342 1.0677 3.2397 2.1684 5.4125 3.3057 2.3515 1.2353 4.6835 2.5087 6.9915 3.8214 2.4862 1.4125 4.8165 3.1174 6.9897 5.1136 2.173 1.9992 3.9783 4.3923 5.4157 7.1808 1.4358 2.7885 2.1554 6.1117 2.1554 9.9677 0 3.7186-0.78859 6.939-2.3658 9.6578-1.5772 2.7221-3.6265 4.9587-6.1497 6.7159-2.5216 1.7556-5.3804 3.0637-8.5669 3.9258-3.1897 0.85872-6.397 1.2906-9.6189 1.2906-6.4484 0-11.863-1.1721-16.242-3.5113-4.3798-2.341-8.3211-5.8886-11.826-10.64l7.4683-9.2846c0.35762-0.44382 0.84354-0.6676 1.3322-0.6676 0.45684 0 0.916 0.19577 1.2745 0.59014 0.04283 0.04711 0.85765 0.9426 2.3304 2.0799 1.4904 1.1498 3.0933 2.1525 4.7829 2.9941 1.688 0.85105 3.4451 1.5595 5.2551 2.1179 1.7876 0.55356 3.4515 0.82714 4.9933 0.82714 1.5402 0 2.7159-0.27518 3.5221-0.82714 0.80465-0.55053 1.2092-1.5832 1.2092-3.0985 0-1.3081-0.72113-2.5465-2.1554-3.7186-1.4373-1.1703-3.2248-2.3915-5.3625-3.6679-2.1377-1.2731-4.4505-2.6491-6.9383-4.133-2.4959-1.4867-4.8231-3.2345-6.9367-5.2146-2.1393-1.9962-3.9253-4.2881-5.3627-6.8694-1.4358-2.583-2.1538-5.5612-2.1538-8.9365 0-3.3059 0.62959-6.1972 1.892-8.6755 1.2608-2.4801 2.96-4.5616 5.0977-6.2509 2.1377-1.686 4.6079-2.9593 7.4105-3.8212 2.8026-0.86051 5.7819-1.2924 8.9363-1.2924" fill="#fff"/><g transform="matrix(1.3333 0 0 -1.3333 0 72)"><g clip-path="url(#clipPath314)"/></g></svg>